<?xml version="1.0" encoding="UTF-8"?>
<svg id="Capa_2" data-name="Capa 2" xmlns="http://www.w3.org/2000/svg" viewBox="0 0 1024 1024">
  <defs>
    <style>
      .cls-1 {
        fill: #f4006f;
      }

      .cls-1, .cls-2, .cls-3 {
        stroke-width: 0px;
      }

      .cls-2 {
        fill: #ba0054;
      }

      .cls-3 {
        fill: #fff;
      }
    </style>
  </defs>
  <g id="Capa_1-2" data-name="Capa 1">
    <g>
      <rect class="cls-1" width="1024" height="1024"/>
      <rect class="cls-2" x="0" y="112" width="775.72" height="138.31"/>
      <rect class="cls-2" x="0" y="331.37" width="534.57" height="138.31"/>
      <rect class="cls-2" x="0" y="550.75" width="876.7" height="138.31"/>
      <rect class="cls-2" x="0" y="770.12" width="590.41" height="138.31"/>
      <g>
        <path class="cls-3" d="M588.5,763.63h-70.2l-.23-49.77h59.63c9.39,0,17.1-1.6,23.12-4.81,6.02-3.21,10.48-7.98,13.38-14.32,2.89-6.34,4.34-14.05,4.34-23.12,0-10.48-1.37-18.9-4.11-25.24-2.74-6.34-7.04-10.95-12.91-13.85-5.87-2.89-13.58-4.34-23.12-4.34h-36.62v284.54h-68.79v-341.82h105.41c16.9,0,32.08,1.88,45.54,5.63,13.46,3.76,24.88,9.51,34.28,17.25,9.39,7.75,16.59,17.45,21.6,29.11,5.01,11.66,7.51,25.47,7.51,41.44,0,14.09-2.82,27.08-8.45,38.97-5.63,11.9-14.48,21.64-26.53,29.23-12.05,7.59-27.7,11.78-46.95,12.56l-16.9,18.55ZM585.91,912.7h-87.1l27.47-57.05h59.63c9.23,0,16.59-1.92,22.07-5.75,5.48-3.83,9.51-9.08,12.09-15.73,2.58-6.65,3.87-14.28,3.87-22.89,0-9.7-1.14-18.15-3.4-25.35-2.27-7.2-5.99-12.71-11.15-16.55-5.17-3.83-12.13-5.75-20.89-5.75h-59.16l.47-49.77h71.84l16.2,19.72c18.31-.62,32.94,2.86,43.9,10.45,10.95,7.59,18.82,17.45,23.6,29.58,4.77,12.13,7.16,25,7.16,38.62,0,21.91-4.11,40.34-12.33,55.29-8.22,14.95-20.23,26.22-36.04,33.81-15.81,7.59-35.21,11.39-58.22,11.39Z"/>
        <path class="cls-3" d="M852.14,843.92c0-4.23-1.49-8.06-4.46-11.5-2.98-3.44-7.67-7.04-14.09-10.8-6.42-3.76-14.95-7.82-25.59-12.21-11.58-4.7-21.83-9.54-30.75-14.56-8.92-5.01-16.47-10.56-22.66-16.67-6.18-6.1-10.84-13.07-13.97-20.89-3.13-7.83-4.7-16.75-4.7-26.76,0-10.8,2-20.78,5.99-29.93s9.74-17.21,17.25-24.18c7.51-6.96,16.71-12.44,27.58-16.43,10.88-3.99,23.12-5.99,36.74-5.99,19.09,0,35.49,3.33,49.18,9.98,13.69,6.65,24.22,15.93,31.58,27.82,7.35,11.9,11.03,25.75,11.03,41.55h-65.73c0-5.63-.86-10.68-2.58-15.14-1.72-4.46-4.5-7.94-8.33-10.45-3.84-2.5-8.96-3.76-15.38-3.76-4.7,0-8.88,1.02-12.56,3.05-3.68,2.04-6.57,4.78-8.69,8.22-2.11,3.44-3.17,7.36-3.17,11.74,0,3.44.74,6.5,2.23,9.16,1.49,2.66,3.91,5.25,7.28,7.75,3.36,2.5,7.75,5.13,13.15,7.86,5.4,2.74,12.25,5.75,20.54,9.04,16.9,6.42,30.79,13.23,41.67,20.42,10.88,7.2,18.98,15.58,24.3,25.12,5.32,9.55,7.98,21.36,7.98,35.45,0,11.27-2.15,21.52-6.46,30.75-4.31,9.24-10.53,17.22-18.66,23.95-8.14,6.73-17.88,11.9-29.23,15.5-11.35,3.6-23.99,5.4-37.92,5.4-20.5,0-37.8-4.07-51.88-12.21-14.09-8.14-24.73-18.58-31.93-31.34-7.2-12.75-10.8-26.02-10.8-39.79h62.45c.31,8.45,1.92,15.07,4.81,19.84,2.89,4.78,6.85,8.1,11.86,9.98,5.01,1.88,10.56,2.82,16.67,2.82s11.35-.86,15.26-2.58c3.91-1.72,6.88-4.3,8.92-7.75,2.03-3.44,3.05-7.59,3.05-12.44Z"/>
      </g>
    </g>
  </g>
</svg>